<svg width="75" height="76" viewBox="0 0 75 76" fill="none" xmlns="http://www.w3.org/2000/svg">
<path d="M0 37.5151C0 16.8045 16.7893 0.0151367 37.5 0.0151367V0.0151367C58.2107 0.0151367 75 16.8045 75 37.5151V37.5151C75 58.2258 58.2107 75.0151 37.5 75.0151V75.0151C16.7893 75.0151 0 58.2258 0 37.5151V37.5151Z" fill="#5D44F8"/>
<path d="M23.8755 51.1396L23.8761 46.0298C23.8764 43.2084 26.1638 40.9213 28.9853 40.9213H38.3515M44.3122 42.0161L47.7183 38.3667M47.7183 38.3667L51.1245 42.0161M47.7183 38.3667V47.7335M45.1638 23.8907C47.2305 25.0492 48.5699 26.9063 48.5699 28.9999C48.5699 31.0934 47.2305 32.9506 45.1638 34.109M40.9061 28.9999C40.9061 31.8216 38.6187 34.109 35.7969 34.109C32.9752 34.109 30.6878 31.8216 30.6878 28.9999C30.6878 26.1781 32.9752 23.8907 35.7969 23.8907C38.6187 23.8907 40.9061 26.1781 40.9061 28.9999Z" stroke="#EEF0F5" stroke-width="2.83843" stroke-linecap="round" stroke-linejoin="round"/>
</svg>
