<svg width="76" height="75" viewBox="0 0 76 75" fill="none" xmlns="http://www.w3.org/2000/svg">
<path d="M0.5 37.5C0.5 16.7893 17.2893 0 38 0V0C58.7107 0 75.5 16.7893 75.5 37.5V37.5C75.5 58.2107 58.7107 75 38 75V75C17.2893 75 0.5 58.2107 0.5 37.5V37.5Z" fill="#5D44F8"/>
<path d="M28.3837 31.7307V27.8846H55.3068V31.7307H28.3837ZM28.3837 39.423V35.5769H55.3068V39.423H28.3837ZM28.3837 47.1154V43.2692H55.3068V47.1154H28.3837ZM22.6145 31.7307C22.0696 31.7307 21.6129 31.5464 21.2443 31.1779C20.8757 30.8093 20.6914 30.3525 20.6914 29.8077C20.6914 29.2628 20.8757 28.8061 21.2443 28.4375C21.6129 28.0689 22.0696 27.8846 22.6145 27.8846C23.1594 27.8846 23.6161 28.0689 23.9847 28.4375C24.3533 28.8061 24.5376 29.2628 24.5376 29.8077C24.5376 30.3525 24.3533 30.8093 23.9847 31.1779C23.6161 31.5464 23.1594 31.7307 22.6145 31.7307ZM22.6145 39.423C22.0696 39.423 21.6129 39.2387 21.2443 38.8702C20.8757 38.5016 20.6914 38.0448 20.6914 37.5C20.6914 36.9551 20.8757 36.4984 21.2443 36.1298C21.6129 35.7612 22.0696 35.5769 22.6145 35.5769C23.1594 35.5769 23.6161 35.7612 23.9847 36.1298C24.3533 36.4984 24.5376 36.9551 24.5376 37.5C24.5376 38.0448 24.3533 38.5016 23.9847 38.8702C23.6161 39.2387 23.1594 39.423 22.6145 39.423ZM22.6145 47.1154C22.0696 47.1154 21.6129 46.9311 21.2443 46.5625C20.8757 46.1939 20.6914 45.7371 20.6914 45.1923C20.6914 44.6474 20.8757 44.1907 21.2443 43.8221C21.6129 43.4535 22.0696 43.2692 22.6145 43.2692C23.1594 43.2692 23.6161 43.4535 23.9847 43.8221C24.3533 44.1907 24.5376 44.6474 24.5376 45.1923C24.5376 45.7371 24.3533 46.1939 23.9847 46.5625C23.6161 46.9311 23.1594 47.1154 22.6145 47.1154Z" fill="#EEF0F5"/>
</svg>
